<?xml version='1.0' encoding='iso-8859-1'?>
<!DOCTYPE svg PUBLIC '-//W3C//DTD SVG 1.1//EN' 'http://www.w3.org/Graphics/SVG/1.1/DTD/svg11.dtd'>
<svg version="1.1" xmlns="http://www.w3.org/2000/svg" viewBox="0 0 297 297" xmlns:xlink="http://www.w3.org/1999/xlink" enable-background="new 0 0 297 297">
  <g>
    <path d="m128.233,32.717c-3.244,3.254-3.236,8.522 0.018,11.768 3.252,3.243 8.52,3.238 11.768-0.018 2.266-2.272 5.279-3.524 8.48-3.524 3.203,0 6.215,1.252 8.482,3.524 1.625,1.63 3.758,2.446 5.891,2.446 2.125,0 4.252-0.81 5.875-2.429 3.256-3.245 3.262-8.514 0.018-11.768-5.412-5.427-12.609-8.416-20.266-8.416-7.656,0.001-14.853,2.99-20.266,8.417z"/>
    <path d="m124.21,26.736c6.49-6.51 15.117-10.095 24.291-10.095 9.174,0.001 17.799,3.585 24.287,10.094 1.627,1.632 3.76,2.447 5.893,2.447 2.125,0 4.252-0.81 5.875-2.428 3.256-3.244 3.264-8.513 0.02-11.767-9.634-9.664-22.446-14.986-36.075-14.987-13.629,0-26.441,5.323-36.076,14.987-3.244,3.255-3.236,8.523 0.018,11.768 3.253,3.245 8.521,3.235 11.767-0.019z"/>
    <path d="m131.339,249.061c-12.633,0-22.908,10.308-22.908,22.977 0,12.669 10.275,22.977 22.908,22.977 12.631,0 22.908-10.308 22.908-22.977 0-12.669-10.277-22.977-22.908-22.977z"/>
    <path d="m94.415,203.393c0,1.434 1.166,2.6 2.6,2.6h68.646c1.434,0 2.6-1.166 2.6-2.6v-17.682h-73.846v17.682z"/>
    <path d="m106.376,242.697c6.728-5.752 15.443-9.237 24.963-9.237 9.518,0 18.232,3.485 24.961,9.237v-21.104h-49.924v21.104z"/>
    <path d="m251.468,61.94h-223.098c-1.436,0-2.602,1.166-2.602,2.6v102.969c0,1.435 1.166,2.601 2.602,2.601h205.938c1.275,0 2.355-0.914 2.564-2.174l17.162-102.969c0.125-0.755-0.086-1.522-0.582-2.107-0.494-0.586-1.219-0.92-1.984-0.92zm-183.256,43.996c-1.455,1.457-3.475,2.288-5.523,2.288-2.049,0-4.057-0.831-5.512-2.288-1.457-1.445-2.289-3.464-2.289-5.512 0-2.05 0.832-4.067 2.289-5.513 1.445-1.457 3.463-2.288 5.512-2.288 2.061,0 4.068,0.831 5.523,2.288 1.445,1.445 2.277,3.452 2.277,5.513 0,2.058-0.832,4.066-2.277,5.512z"/>
    <path d="m285.792,82.481h-18.861l-11.18,67.086h30.041c4.309,0 7.801-3.492 7.801-7.801v-51.484c5.68434e-14-4.308-3.492-7.801-7.801-7.801z"/>
    <path d="m11.208,247.075c-4.309,0-7.801,3.492-7.801,7.801v34.323c0,4.309 3.492,7.801 7.801,7.801h90.803c-5.721-6.734-9.182-15.448-9.182-24.962 0-9.515 3.461-18.228 9.182-24.963h-90.803z"/>
  </g>
</svg>
